<?xml version="1.0" encoding="utf-8"?>
<!-- Generator: Adobe Illustrator 18.1.1, SVG Export Plug-In . SVG Version: 6.00 Build 0)  -->
<svg version="1.1" id="Layer_2_1_" xmlns="http://www.w3.org/2000/svg" xmlns:xlink="http://www.w3.org/1999/xlink" x="0px" y="0px"
	 viewBox="0 245.7 595.3 595.3" enable-background="new 0 245.7 595.3 595.3" xml:space="preserve">
<g>
	<path fill="#61DAFB" d="M545.1,543.4c0-32.8-41.1-63.9-104-83.2c14.6-64.2,8.1-115.1-20.4-131.5c-6.6-3.9-14.3-5.7-22.5-5.7v22.5
		c4.7,0,8.4,0.9,11.6,2.6c13.7,7.8,19.7,37.8,15,76.3c-1.1,9.4-3,19.4-5.1,29.7c-19.8-4.9-41.4-8.6-64.1-11
		c-13.6-18.7-27.7-35.7-41.9-50.5c33-30.5,63.8-47.4,84.7-47.4v-22.5l0,0c-27.7,0-64.1,19.8-100.7,54.1
		c-36.7-34.1-73-53.6-100.7-53.6v22.5c20.8,0,51.8,16.7,84.7,46.9c-14.1,14.8-28.2,31.7-41.7,50.4c-22.8,2.4-44.4,6.1-64.2,11.1
		c-2.3-10.1-4-19.8-5.3-29.2c-4.7-38.5,1.1-68.5,14.7-76.5c3-1.9,7-2.6,11.6-2.6v-22.3l0,0c-8.4,0-16.1,1.9-22.8,5.7
		c-28.4,16.4-34.7,67.3-20.1,131.2c-62.8,19.4-103.6,50.4-103.6,83c0,32.8,41.1,63.9,104,83.2c-14.6,64.2-8.1,115.1,20.4,131.5
		c6.6,3.9,14.3,5.7,22.7,5.7c27.7,0,64.1-19.8,100.7-54.1c36.7,34.1,73,53.6,100.7,53.6c8.4,0,16.1-1.9,22.8-5.7
		c28.4-16.4,34.7-67.3,20.1-131.2C504.3,607.2,545.1,576.1,545.1,543.4z M413.8,476.2c-3.7,13-8.4,26.4-13.6,39.8
		c-4.1-8.1-8.4-16.1-13.3-24.3c-4.7-8.1-9.6-16-14.6-23.5C386.7,470.4,400.6,472.9,413.8,476.2z M367.6,583.6
		c-7.8,13.6-16,26.5-24.3,38.5c-15,1.3-30.2,2-45.7,2c-15.3,0-30.5-0.7-45.4-1.9c-8.4-12-16.5-24.8-24.4-38.4
		c-7.7-13.3-14.7-26.7-21-40.1c6.3-13.6,13.3-27,20.8-40.2c7.8-13.6,16-26.5,24.3-38.5c15-1.3,30.2-2,45.7-2
		c15.3,0,30.5,0.7,45.4,1.9c8.4,12,16.5,24.8,24.4,38.4c7.7,13.3,14.7,26.7,21,40.1C382.2,556.8,375.2,570.4,367.6,583.6z
		 M400.1,570.5c5.4,13.6,10.1,27,14,40.1c-13.3,3.3-27.1,6-41.5,8.1c5-7.7,9.8-15.7,14.6-24C391.7,586.8,396,578.5,400.1,570.5z
		 M297.9,678.1c-9.4-9.7-18.8-20.5-28.1-32.2c9.1,0.4,18.4,0.7,27.7,0.7c9.4,0,18.8-0.1,28.1-0.7
		C316.5,657.7,307.1,668.4,297.9,678.1z M222.8,618.7c-14.3-2.1-28.1-4.7-41.4-8c3.7-13,8.4-26.4,13.6-39.8
		c4.1,8.1,8.4,16.1,13.3,24.3C213.1,603.2,217.8,611,222.8,618.7z M297.4,408.7c9.4,9.7,18.8,20.5,28.1,32.2
		c-9.1-0.4-18.4-0.7-27.7-0.7c-9.4,0-18.8,0.1-28.1,0.7C278.7,429.3,288.2,418.4,297.4,408.7z M222.7,468.2c-5,7.7-9.8,15.7-14.6,24
		c-4.7,8.1-9,16.1-13.1,24.3c-5.4-13.6-10.1-27-14-40.1C194.4,473.1,208.3,470.4,222.7,468.2z M131.5,594.5
		c-35.7-15.3-58.8-35.2-58.8-51.1c0-15.8,23.1-36,58.8-51.1c8.7-3.7,18.1-7,28-10.1c5.7,19.8,13.3,40.4,22.7,61.5
		c-9.3,21-16.7,41.5-22.4,61.1C149.6,601.6,140.2,598.2,131.5,594.5z M185.7,738.6c-13.7-7.8-19.7-37.8-15-76.3
		c1.1-9.4,3-19.4,5.1-29.7c19.8,4.9,41.4,8.6,64.1,11c13.6,18.7,27.7,35.7,41.9,50.5c-33,30.5-63.8,47.4-84.7,47.4
		C192.6,741.3,188.7,740.4,185.7,738.6z M425,661.8c4.7,38.5-1.1,68.5-14.7,76.5c-3,1.9-7,2.6-11.6,2.6c-20.8,0-51.8-16.7-84.7-46.9
		c14.1-14.8,28.2-31.7,41.7-50.4c22.8-2.4,44.4-6.1,64.2-11.1C422.1,642.6,423.8,652.4,425,661.8z M463.8,594.5
		c-8.7,3.7-18.1,7-28,10.1c-5.7-19.8-13.3-40.4-22.7-61.5c9.3-21,16.7-41.5,22.4-61.1c10,3.1,19.4,6.6,28.4,10.3
		c35.7,15.3,58.8,35.2,58.8,51.1C522.7,559.3,499.6,579.4,463.8,594.5z"/>
	<path fill="#61DAFB" d="M196.6,323.4L196.6,323.4L196.6,323.4z"/>
	<circle fill="#61DAFB" cx="297.6" cy="543.4" r="46.1"/>
	<path fill="#61DAFB" d="M398,323.1L398,323.1L398,323.1z"/>
</g>
</svg>
